<svg version="1.1" xmlns="http://www.w3.org/2000/svg" viewBox="0 0 780.3634084697447 358.32846801570486" width="1560.7268169394895" height="716.6569360314097" filter="invert(93%) hue-rotate(180deg)">
  <!-- svg-source:excalidraw -->
  
  <defs>
    <style>
      @font-face {
        font-family: "Virgil";
        src: url("https://excalidraw.com/Virgil.woff2");
      }
      @font-face {
        font-family: "Cascadia";
        src: url("https://excalidraw.com/Cascadia.woff2");
      }
    </style>
  </defs>
  <g stroke-linecap="round" transform="translate(190.04709377247912 214.7296600341797) rotate(0 56.401123046875 53.30961608886719)"><path d="M26.65 0 M26.65 0 C41.41 1.28, 52.7 2.55, 86.15 0 M26.65 0 C42.74 0.78, 59.63 -0.35, 86.15 0 M86.15 0 C102.64 0.14, 112.54 8.53, 112.8 26.65 M86.15 0 C103.58 -1.93, 112.13 8.14, 112.8 26.65 M112.8 26.65 C111.68 41.82, 112.61 54.26, 112.8 79.96 M112.8 26.65 C113.44 43.49, 113.57 58.03, 112.8 79.96 M112.8 79.96 C110.97 96.26, 104.82 107.62, 86.15 106.62 M112.8 79.96 C114.25 95.71, 105.53 107.76, 86.15 106.62 M86.15 106.62 C69.38 106.54, 50.19 106.22, 26.65 106.62 M86.15 106.62 C74.25 105.34, 62.26 106.57, 26.65 106.62 M26.65 106.62 C6.97 107.66, -0.1 96.81, 0 79.96 M26.65 106.62 C9.72 106.34, 1.86 98.67, 0 79.96 M0 79.96 C1.12 68.66, -2.36 54.27, 0 26.65 M0 79.96 C1.08 61.92, 0.49 45.95, 0 26.65 M0 26.65 C-0.12 9.13, 8.67 0.46, 26.65 0 M0 26.65 C2.27 8.04, 11.17 -1.34, 26.65 0" stroke="#000000" stroke-width="1" fill="none"></path></g><g transform="translate(212.746282004901 238.12586975097656) rotate(0 35 30)"><text x="35" y="14" font-family="Virgil, Segoe UI Emoji" font-size="16px" fill="#000000" text-anchor="middle" style="white-space: pre;" direction="ltr">PortalEx</text><text x="35" y="34" font-family="Virgil, Segoe UI Emoji" font-size="16px" fill="#000000" text-anchor="middle" style="white-space: pre;" direction="ltr">Mobile</text><text x="35" y="54" font-family="Virgil, Segoe UI Emoji" font-size="16px" fill="#000000" text-anchor="middle" style="white-space: pre;" direction="ltr">App</text></g><g stroke-linecap="round" transform="translate(193.15726222951037 10) rotate(0 56.401123046875 53.30961608886719)"><path d="M26.65 0 M26.65 0 C39.3 1.78, 50.68 -1.02, 86.15 0 M26.65 0 C40.79 -0.95, 54.7 -0.18, 86.15 0 M86.15 0 C103.66 -0.35, 112.51 7.21, 112.8 26.65 M86.15 0 C103.25 -0.75, 112.21 9.83, 112.8 26.65 M112.8 26.65 C112.03 36.73, 112.48 50.4, 112.8 79.96 M112.8 26.65 C113.76 39.46, 112.17 53.14, 112.8 79.96 M112.8 79.96 C113.7 98.73, 105.18 104.86, 86.15 106.62 M112.8 79.96 C114.41 98.88, 103.88 108, 86.15 106.62 M86.15 106.62 C67.32 106.12, 47.51 107.06, 26.65 106.62 M86.15 106.62 C72.15 106.31, 55.86 106.57, 26.65 106.62 M26.65 106.62 C8.79 105.7, 0.72 97.5, 0 79.96 M26.65 106.62 C10.75 107.56, -1.32 99.45, 0 79.96 M0 79.96 C-2.37 59.03, 0.11 36.94, 0 26.65 M0 79.96 C-0.2 65.43, -0.51 49.63, 0 26.65 M0 26.65 C-0.21 9.34, 10.86 -0.73, 26.65 0 M0 26.65 C2.28 7.54, 8.01 1.31, 26.65 0" stroke="#000000" stroke-width="1" fill="none"></path></g><g transform="translate(215.62399806935412 43.69837951660156) rotate(0 35 20)"><text x="35" y="14" font-family="Virgil, Segoe UI Emoji" font-size="16px" fill="#000000" text-anchor="middle" style="white-space: pre;" direction="ltr">PortalEx</text><text x="35" y="34" font-family="Virgil, Segoe UI Emoji" font-size="16px" fill="#000000" text-anchor="middle" style="white-space: pre;" direction="ltr">Backend</text></g><g stroke-linecap="round" transform="translate(428.0928701396666 212.41677856445312) rotate(0 56.401123046875 53.30961608886719)"><path d="M26.65 0 M26.65 0 C46.2 -1.4, 65.42 -1.59, 86.15 0 M26.65 0 C46.41 0.49, 67.32 0.24, 86.15 0 M86.15 0 C103.62 -1.68, 112.22 8.24, 112.8 26.65 M86.15 0 C103.32 0.94, 110.95 7.34, 112.8 26.65 M112.8 26.65 C112.73 44.46, 111.8 62.63, 112.8 79.96 M112.8 26.65 C112.24 45.87, 113.61 67.05, 112.8 79.96 M112.8 79.96 C114.06 95.97, 105.32 107.61, 86.15 106.62 M112.8 79.96 C112.77 99.12, 104.12 107.76, 86.15 106.62 M86.15 106.62 C66.83 106.97, 50.19 107.25, 26.65 106.62 M86.15 106.62 C73.06 107.3, 61.83 106.32, 26.65 106.62 M26.65 106.62 C9.61 106.38, 1.62 98.55, 0 79.96 M26.65 106.62 C7.56 108.33, 2.2 99.48, 0 79.96 M0 79.96 C1.03 58.81, 0.24 41.06, 0 26.65 M0 79.96 C-0.2 67.75, -0.24 55.53, 0 26.65 M0 26.65 C1.97 8.15, 10.87 -1.17, 26.65 0 M0 26.65 C-0.87 10.19, 10.15 1.11, 26.65 0" stroke="#000000" stroke-width="1" fill="none"></path></g><g transform="translate(453.55960597951037 250.21002197265625) rotate(0 32 12.5)"><text x="32" y="18" font-family="Virgil, Segoe UI Emoji" font-size="20px" fill="#000000" text-anchor="middle" style="white-space: pre;" direction="ltr">Portal</text></g><g transform="translate(13.783606248879778 328.32846801570486) rotate(0 18 10)"><text x="0" y="14" font-family="Virgil, Segoe UI Emoji" font-size="16px" fill="#000000" text-anchor="start" style="white-space: pre;" direction="ltr">User</text></g><g stroke-linecap="round" transform="translate(17.26013759193154 212.23198628204028) rotate(0 19.51486388644267 17.961569167510532)"><path d="M25.52 1.5 C29.3 2.63, 33.67 5.66, 35.86 8.83 C38.06 12, 39.14 16.81, 38.71 20.54 C38.27 24.27, 36.41 28.71, 33.25 31.21 C30.09 33.72, 24.02 35.3, 19.74 35.58 C15.46 35.85, 10.69 35.31, 7.58 32.85 C4.48 30.39, 2 24.8, 1.1 20.83 C0.2 16.86, 0.49 12.25, 2.2 9.03 C3.9 5.81, 7.25 2.92, 11.32 1.51 C15.39 0.1, 23.84 0.56, 26.6 0.59 C29.37 0.61, 28 1.18, 27.93 1.67 M27.57 1.69 C31.52 3.04, 35.97 6.02, 37.6 9.18 C39.23 12.34, 38.54 16.68, 37.35 20.67 C36.16 24.65, 33.57 30.55, 30.47 33.07 C27.37 35.58, 22.99 36.27, 18.75 35.76 C14.51 35.26, 8.23 32.4, 5.02 30.04 C1.82 27.69, -0.26 25.5, -0.5 21.63 C-0.75 17.76, 1.06 10.29, 3.56 6.82 C6.06 3.35, 10.47 1.73, 14.49 0.81 C18.51 -0.12, 25.76 1.33, 27.68 1.27 C29.6 1.2, 26.48 0.21, 26.02 0.42" stroke="#000000" stroke-width="2" fill="none"></path></g><g stroke-linecap="round"><g transform="translate(34.85576377577962 248.07700326382496) rotate(0 -0.592174631592826 21.77705687577341)"><path d="M-0.65 0.76 C-1.07 7.94, -1.39 35.22, -1.61 42.47 M1.21 0.11 C0.58 7.46, -1.73 36.41, -2.39 43.45" stroke="#000000" stroke-width="2" fill="none"></path></g></g><g stroke-linecap="round"><g transform="translate(32.95897583384209 292.04153975985) rotate(0 9.00206155976963 13.722608946053867)"><path d="M0.76 0.31 C3.56 4.84, 13.29 22.18, 16.16 26.51 M-0.31 -0.57 C2.91 4.21, 15.32 23.34, 18.31 28.02" stroke="#000000" stroke-width="2" fill="none"></path></g></g><g stroke-linecap="round"><g transform="translate(30.745494304408282 290.4186255011939) rotate(0 -7.733701862082313 12.169257692418626)"><path d="M0.31 -1.08 C-2.05 3.03, -12.25 21.05, -14.8 25.42 M-0.99 0.97 C-3.45 4.67, -13.29 20.01, -15.78 23.68" stroke="#000000" stroke-width="2" fill="none"></path></g></g><g stroke-linecap="round"><g transform="translate(11.077070106193446 272.61572734577453) rotate(0 11.229002512816805 -7.4524114674324835)"><path d="M-1.08 -0.05 C2.72 -2.58, 19.48 -12.4, 23.54 -14.85 M0.56 -1.12 C4.2 -3.5, 19.29 -11.38, 22.98 -13.45" stroke="#000000" stroke-width="2" fill="none"></path></g></g><g stroke-linecap="round"><g transform="translate(33.53874003826911 257.0590645072507) rotate(0 7.256855831440419 9.980377154626751)"><path d="M-0.05 0.74 C2.57 4.23, 13.35 16.75, 16.05 19.87 M-1.54 0.09 C0.88 3.31, 12.16 14.53, 14.97 17.99" stroke="#000000" stroke-width="2" fill="none"></path></g></g><g stroke-linecap="round" transform="translate(655.1322072978697 200.76947784423828) rotate(0 57.6156005859375 57.6156005859375)"><path d="M72.31 14.5 M72.31 14.5 C81.4 24.71, 94.64 34.52, 100.92 43.5 M72.31 14.5 C79.26 22.48, 88.37 31.17, 100.92 43.5 M100.92 43.5 C113.45 59.41, 113.26 58.32, 100.92 72.31 M100.92 43.5 C113.58 58.98, 114.52 56, 100.92 72.31 M100.92 72.31 C90.99 80.01, 86.16 87.04, 72.31 100.92 M100.92 72.31 C94.77 78.67, 86.84 86.48, 72.31 100.92 M72.31 100.92 C57.31 117.08, 59.1 114.56, 43.5 100.92 M72.31 100.92 C58.34 113.27, 60.02 115.98, 43.5 100.92 M43.5 100.92 C33.76 92.68, 24.68 83.29, 14.5 72.31 M43.5 100.92 C35.55 93.75, 27.14 85.53, 14.5 72.31 M14.5 72.31 C-0.37 56.66, 1.35 58.81, 14.5 43.5 M14.5 72.31 C1.36 58.34, 0.95 56.9, 14.5 43.5 M14.5 43.5 C24.99 32.13, 33.15 22.79, 43.5 14.5 M14.5 43.5 C20.36 37.87, 27.45 30.81, 43.5 14.5 M43.5 14.5 C59.2 1.81, 56.89 -0.68, 72.31 14.5 M43.5 14.5 C58.67 -0.27, 56.16 0.66, 72.31 14.5" stroke="#000000" stroke-width="1" fill="none"></path></g><g transform="translate(660.1322072978697 245.88507843017578) rotate(0 52.5 12.5)"><text x="52.5" y="18" font-family="Virgil, Segoe UI Emoji" font-size="20px" fill="#000000" text-anchor="middle" style="white-space: pre;" direction="ltr">Chain</text></g><g stroke-linecap="round"><g transform="translate(312.35754909474474 263.59583282470703) rotate(0 54.330000943969935 0.5800016412874243)"><path d="M0.54 1.45 C42.17 0.53, 82.73 -1.55, 108.37 1.26 M0.29 -0.04 C31.88 -0.56, 62.96 -0.18, 107.48 0.36" stroke="#000000" stroke-width="1" fill="none"></path></g><g transform="translate(312.35754909474474 263.59583282470703) rotate(0 54.330000943969935 0.5800016412874243)"><path d="M79.72 11.74 C90.76 7.53, 100.77 1.6, 108.71 1.62 M79.46 10.26 C88.07 7.29, 96.16 4.78, 107.82 0.73" stroke="#000000" stroke-width="1" fill="none"></path></g><g transform="translate(312.35754909474474 263.59583282470703) rotate(0 54.330000943969935 0.5800016412874243)"><path d="M79.96 -8.78 C90.98 -5.03, 100.89 -3.01, 108.71 1.62 M79.7 -10.26 C88.26 -7.25, 96.28 -3.78, 107.82 0.73" stroke="#000000" stroke-width="1" fill="none"></path></g></g><g stroke-linecap="round"><g transform="translate(77.26971950490099 267.6642532348633) rotate(0 51.57018739171326 -0.6963200081855803)"><path d="M-1.26 -1.7 C24.11 1.32, 47.52 -1.15, 104.4 -0.57 M-0.88 -0.43 C32.46 0.18, 66.26 0.75, 103.26 -0.2" stroke="#000000" stroke-width="1" fill="none"></path></g><g transform="translate(77.26971950490099 267.6642532348633) rotate(0 51.57018739171326 -0.6963200081855803)"><path d="M73.96 8.78 C82.46 9.85, 89.09 5.1, 104.65 -0.27 M74.33 10.05 C83.46 6.99, 92.97 4.26, 103.51 0.1" stroke="#000000" stroke-width="1" fill="none"></path></g><g transform="translate(77.26971950490099 267.6642532348633) rotate(0 51.57018739171326 -0.6963200081855803)"><path d="M73.66 -11.74 C82.41 -6.07, 89.11 -6.23, 104.65 -0.27 M74.03 -10.47 C83.11 -6.88, 92.72 -2.96, 103.51 0.1" stroke="#000000" stroke-width="1" fill="none"></path></g></g><g stroke-linecap="round"><g transform="translate(264.73792018849474 127.92438507080078) rotate(0 0.00795628194936171 38.03418700443581)"><path d="M-1.07 1.05 C-0.04 17.51, 0.69 35.55, -0.03 76.5 M0.64 -0.43 C0.94 19.17, 1.32 36.03, 0.9 74.5" stroke="#000000" stroke-width="1" fill="none"></path></g><g transform="translate(264.73792018849474 127.92438507080078) rotate(0 0.00795628194936171 38.03418700443581)"><path d="M-10.25 47.3 C-7.1 52.91, -4.4 60.16, -0.75 76.28 M-8.54 45.82 C-6.43 54.04, -3.98 59.55, 0.18 74.29" stroke="#000000" stroke-width="1" fill="none"></path></g><g transform="translate(264.73792018849474 127.92438507080078) rotate(0 0.00795628194936171 38.03418700443581)"><path d="M10.27 47.43 C8.65 53.15, 6.59 60.37, -0.75 76.28 M11.98 45.95 C9.08 54.21, 6.51 59.69, 0.18 74.29" stroke="#000000" stroke-width="1" fill="none"></path></g></g><g stroke-linecap="round"><g transform="translate(234.8455251689635 205.57831573486328) rotate(0 -1.1305684973485768 -37.66107659135014)"><path d="M-0.88 -2 C-1.72 -21.18, -0.27 -39.32, -2.28 -75.15 M-0.67 0.33 C0.38 -25.07, -1.19 -49.57, 0.02 -75.65" stroke="#000000" stroke-width="1" fill="none"></path></g><g transform="translate(234.8455251689635 205.57831573486328) rotate(0 -1.1305684973485768 -37.66107659135014)"><path d="M8.81 -49.25 C5.58 -55.53, 4.56 -60.86, -1.57 -75.73 M9.02 -46.92 C7.12 -57.13, 2.63 -66.47, 0.73 -76.23" stroke="#000000" stroke-width="1" fill="none"></path></g><g transform="translate(234.8455251689635 205.57831573486328) rotate(0 -1.1305684973485768 -37.66107659135014)"><path d="M-11.71 -49.67 C-9.31 -56.04, -4.7 -61.25, -1.57 -75.73 M-11.49 -47.35 C-6.74 -57.49, -4.56 -66.7, 0.73 -76.23" stroke="#000000" stroke-width="1" fill="none"></path></g></g><g stroke-linecap="round"><g transform="translate(551.2022756572447 266.1281204223633) rotate(0 47.303211689926684 -1.1769227977517858)"><path d="M0.33 -1.99 C19.56 1.16, 36.97 -1.09, 94.49 -2.65 M-0.45 0.25 C33.13 0.25, 63.89 0.77, 95.06 -1.62" stroke="#000000" stroke-width="1" fill="none"></path></g><g transform="translate(551.2022756572447 266.1281204223633) rotate(0 47.303211689926684 -1.1769227977517858)"><path d="M67.77 8.1 C73.24 8.75, 76.93 4.26, 94.03 -3.59 M66.99 10.33 C77.46 6.19, 85.19 2.97, 94.6 -2.57" stroke="#000000" stroke-width="1" fill="none"></path></g><g transform="translate(551.2022756572447 266.1281204223633) rotate(0 47.303211689926684 -1.1769227977517858)"><path d="M66.7 -12.39 C72.44 -7.6, 76.34 -7.95, 94.03 -3.59 M65.92 -10.16 C76.9 -7.34, 85 -3.62, 94.6 -2.57" stroke="#000000" stroke-width="1" fill="none"></path></g></g><g stroke-linecap="round"><g transform="translate(427.416448020526 199.51258087158203) rotate(0 -51.58858311083168 -41.71960137877613)"><path d="M-1.43 -1.9 C-28.59 -24.07, -54 -46.28, -101.65 -82.02 M-0.19 -0.28 C-30.33 -26.06, -61.96 -49.75, -102.98 -83.16" stroke="#000000" stroke-width="1" fill="none"></path></g><g transform="translate(427.416448020526 199.51258087158203) rotate(0 -51.58858311083168 -41.71960137877613)"><path d="M-76 -75.42 C-83.42 -77.65, -89.44 -80.67, -101.83 -81.91 M-74.77 -73.8 C-82.33 -77.3, -91.28 -78.56, -103.16 -83.05" stroke="#000000" stroke-width="1" fill="none"></path></g><g transform="translate(427.416448020526 199.51258087158203) rotate(0 -51.58858311083168 -41.71960137877613)"><path d="M-88.85 -59.42 C-92.99 -65.69, -95.66 -72.88, -101.83 -81.91 M-87.61 -57.79 C-91.24 -66.2, -96.28 -72.34, -103.16 -83.05" stroke="#000000" stroke-width="1" fill="none"></path></g></g><g transform="translate(384.72424831349474 124.95435333251953) rotate(0 36.5 20)"><text x="36.5" y="14" font-family="Virgil, Segoe UI Emoji" font-size="16px" fill="#000000" text-anchor="middle" style="white-space: pre;" direction="ltr">Signature</text><text x="36.5" y="34" font-family="Virgil, Segoe UI Emoji" font-size="16px" fill="#000000" text-anchor="middle" style="white-space: pre;" direction="ltr">Webhook</text></g><g transform="translate(144.0069021220885 149.91193389892578) rotate(0 35.5 20)"><text x="35.5" y="14" font-family="Virgil, Segoe UI Emoji" font-size="16px" fill="#000000" text-anchor="middle" style="white-space: pre;" direction="ltr">Exchange</text><text x="35.5" y="34" font-family="Virgil, Segoe UI Emoji" font-size="16px" fill="#000000" text-anchor="middle" style="white-space: pre;" direction="ltr">API</text></g><g transform="translate(332.0296072002135 272.9254837036133) rotate(0 30 30)"><text x="30" y="14" font-family="Virgil, Segoe UI Emoji" font-size="16px" fill="#000000" text-anchor="middle" style="white-space: pre;" direction="ltr">Portal</text><text x="30" y="34" font-family="Virgil, Segoe UI Emoji" font-size="16px" fill="#000000" text-anchor="middle" style="white-space: pre;" direction="ltr">Connect</text><text x="30" y="54" font-family="Virgil, Segoe UI Emoji" font-size="16px" fill="#000000" text-anchor="middle" style="white-space: pre;" direction="ltr">API</text></g></svg>